<svg xmlns="http://www.w3.org/2000/svg" version="1.1" xmlns:xlink="http://www.w3.org/1999/xlink" xmlns:svgjs="http://svgjs.dev/svgjs" viewBox="0 0 800 800" opacity="0.61"><defs><linearGradient x1="50%" y1="0%" x2="50%" y2="100%" id="oooscillate-grad"><stop stop-color="hsl(30, 75%, 59%)" stop-opacity="1" offset="0%"></stop><stop stop-color="hsl(30, 56%, 72%)" stop-opacity="1" offset="100%"></stop></linearGradient></defs><g stroke-width="4.5" stroke="url(#oooscillate-grad)" fill="none" stroke-linecap="round"><path d="M 0 792 Q 200 190 400 400 Q 600 610 800 792" stroke-dasharray="1 9" opacity="0.38"></path><path d="M 0 770 Q 200 190 400 400 Q 600 610 800 770" stroke-dasharray="7 6" opacity="0.95"></path><path d="M 0 748 Q 200 190 400 400 Q 600 610 800 748" stroke-dasharray="4 3" opacity="0.22"></path><path d="M 0 726 Q 200 190 400 400 Q 600 610 800 726" stroke-dasharray="5 2" opacity="0.96"></path><path d="M 0 704 Q 200 190 400 400 Q 600 610 800 704" stroke-dasharray="8 9" opacity="0.23"></path><path d="M 0 682 Q 200 190 400 400 Q 600 610 800 682" stroke-dasharray="9 6" opacity="0.99"></path><path d="M 0 660 Q 200 190 400 400 Q 600 610 800 660" stroke-dasharray="7 6" opacity="0.39"></path><path d="M 0 638 Q 200 190 400 400 Q 600 610 800 638" stroke-dasharray="3 4" opacity="0.54"></path><path d="M 0 616 Q 200 190 400 400 Q 600 610 800 616" stroke-dasharray="7 2" opacity="0.09"></path><path d="M 0 594 Q 200 190 400 400 Q 600 610 800 594" stroke-dasharray="6 1" opacity="0.14"></path><path d="M 0 572 Q 200 190 400 400 Q 600 610 800 572" stroke-dasharray="7 8" opacity="0.96"></path><path d="M 0 550 Q 200 190 400 400 Q 600 610 800 550" stroke-dasharray="0 1" opacity="0.65"></path><path d="M 0 528 Q 200 190 400 400 Q 600 610 800 528" stroke-dasharray="8 0" opacity="0.49"></path><path d="M 0 506 Q 200 190 400 400 Q 600 610 800 506" stroke-dasharray="7 4" opacity="0.34"></path><path d="M 0 484 Q 200 190 400 400 Q 600 610 800 484" stroke-dasharray="3 7" opacity="0.33"></path><path d="M 0 462 Q 200 190 400 400 Q 600 610 800 462" stroke-dasharray="0 1" opacity="0.99"></path><path d="M 0 440 Q 200 190 400 400 Q 600 610 800 440" stroke-dasharray="6 5" opacity="0.94"></path><path d="M 0 418 Q 200 190 400 400 Q 600 610 800 418" stroke-dasharray="1 6" opacity="0.62"></path><path d="M 0 396 Q 200 190 400 400 Q 600 610 800 396" stroke-dasharray="5 1" opacity="0.12"></path><path d="M 0 374 Q 200 190 400 400 Q 600 610 800 374" stroke-dasharray="4 7" opacity="0.55"></path><path d="M 0 352 Q 200 190 400 400 Q 600 610 800 352" stroke-dasharray="4 1" opacity="0.50"></path><path d="M 0 330 Q 200 190 400 400 Q 600 610 800 330" stroke-dasharray="4 1" opacity="0.94"></path><path d="M 0 308 Q 200 190 400 400 Q 600 610 800 308" stroke-dasharray="3 1" opacity="0.57"></path><path d="M 0 286 Q 200 190 400 400 Q 600 610 800 286" stroke-dasharray="6 8" opacity="0.85"></path><path d="M 0 264 Q 200 190 400 400 Q 600 610 800 264" stroke-dasharray="2 6" opacity="0.80"></path><path d="M 0 242 Q 200 190 400 400 Q 600 610 800 242" stroke-dasharray="4 5" opacity="0.36"></path><path d="M 0 220 Q 200 190 400 400 Q 600 610 800 220" stroke-dasharray="3 4" opacity="0.21"></path><path d="M 0 198 Q 200 190 400 400 Q 600 610 800 198" stroke-dasharray="4 3" opacity="0.56"></path><path d="M 0 176 Q 200 190 400 400 Q 600 610 800 176" stroke-dasharray="9 5" opacity="0.51"></path><path d="M 0 154 Q 200 190 400 400 Q 600 610 800 154" stroke-dasharray="1 8" opacity="0.34"></path><path d="M 0 132 Q 200 190 400 400 Q 600 610 800 132" stroke-dasharray="1 9" opacity="0.93"></path><path d="M 0 110 Q 200 190 400 400 Q 600 610 800 110" stroke-dasharray="7 3" opacity="0.64"></path><path d="M 0 88 Q 200 190 400 400 Q 600 610 800 88" stroke-dasharray="5 1" opacity="0.46"></path><path d="M 0 66 Q 200 190 400 400 Q 600 610 800 66" stroke-dasharray="8 0" opacity="0.17"></path><path d="M 0 44 Q 200 190 400 400 Q 600 610 800 44" stroke-dasharray="4 2" opacity="0.30"></path></g></svg>