<svg xmlns="http://www.w3.org/2000/svg" version="1.1" xmlns:xlink="http://www.w3.org/1999/xlink" xmlns:svgjs="http://svgjs.dev/svgjs" viewBox="0 0 1422 800" opacity="0.61"><defs><linearGradient x1="50%" y1="0%" x2="50%" y2="100%" id="oooscillate-grad"><stop stop-color="hsl(30, 75%, 59%)" stop-opacity="1" offset="0%"></stop><stop stop-color="hsl(30, 56%, 72%)" stop-opacity="1" offset="100%"></stop></linearGradient></defs><g stroke-width="4.5" stroke="url(#oooscillate-grad)" fill="none" stroke-linecap="round"><path d="M 0 792 Q 355.5 190 711 400 Q 1066.5 610 1422 792" stroke-dasharray="6 3" opacity="0.64"></path><path d="M 0 770 Q 355.5 190 711 400 Q 1066.5 610 1422 770" stroke-dasharray="6 6" opacity="0.58"></path><path d="M 0 748 Q 355.5 190 711 400 Q 1066.5 610 1422 748" stroke-dasharray="9 1" opacity="0.77"></path><path d="M 0 726 Q 355.5 190 711 400 Q 1066.5 610 1422 726" stroke-dasharray="5 5" opacity="0.64"></path><path d="M 0 704 Q 355.5 190 711 400 Q 1066.5 610 1422 704" stroke-dasharray="6 5" opacity="0.64"></path><path d="M 0 682 Q 355.5 190 711 400 Q 1066.5 610 1422 682" stroke-dasharray="0 5" opacity="0.28"></path><path d="M 0 660 Q 355.5 190 711 400 Q 1066.5 610 1422 660" stroke-dasharray="8 9" opacity="0.89"></path><path d="M 0 638 Q 355.5 190 711 400 Q 1066.5 610 1422 638" stroke-dasharray="5 6" opacity="0.89"></path><path d="M 0 616 Q 355.5 190 711 400 Q 1066.5 610 1422 616" stroke-dasharray="3 9" opacity="0.81"></path><path d="M 0 594 Q 355.5 190 711 400 Q 1066.5 610 1422 594" stroke-dasharray="6 9" opacity="0.35"></path><path d="M 0 572 Q 355.5 190 711 400 Q 1066.5 610 1422 572" stroke-dasharray="3 3" opacity="0.57"></path><path d="M 0 550 Q 355.5 190 711 400 Q 1066.5 610 1422 550" stroke-dasharray="8 7" opacity="0.64"></path><path d="M 0 528 Q 355.5 190 711 400 Q 1066.5 610 1422 528" stroke-dasharray="5 7" opacity="0.72"></path><path d="M 0 506 Q 355.5 190 711 400 Q 1066.5 610 1422 506" stroke-dasharray="8 6" opacity="0.57"></path><path d="M 0 484 Q 355.5 190 711 400 Q 1066.5 610 1422 484" stroke-dasharray="1 5" opacity="0.99"></path><path d="M 0 462 Q 355.5 190 711 400 Q 1066.5 610 1422 462" stroke-dasharray="4 9" opacity="0.69"></path><path d="M 0 440 Q 355.5 190 711 400 Q 1066.5 610 1422 440" stroke-dasharray="8 8" opacity="0.83"></path><path d="M 0 418 Q 355.5 190 711 400 Q 1066.5 610 1422 418" stroke-dasharray="5 6" opacity="0.26"></path><path d="M 0 396 Q 355.5 190 711 400 Q 1066.5 610 1422 396" stroke-dasharray="7 7" opacity="0.26"></path><path d="M 0 374 Q 355.5 190 711 400 Q 1066.5 610 1422 374" stroke-dasharray="3 7" opacity="0.54"></path><path d="M 0 352 Q 355.5 190 711 400 Q 1066.5 610 1422 352" stroke-dasharray="8 8" opacity="0.49"></path><path d="M 0 330 Q 355.5 190 711 400 Q 1066.5 610 1422 330" stroke-dasharray="7 7" opacity="0.69"></path><path d="M 0 308 Q 355.5 190 711 400 Q 1066.5 610 1422 308" stroke-dasharray="3 8" opacity="0.87"></path><path d="M 0 286 Q 355.5 190 711 400 Q 1066.5 610 1422 286" stroke-dasharray="1 1" opacity="0.76"></path><path d="M 0 264 Q 355.5 190 711 400 Q 1066.5 610 1422 264" stroke-dasharray="3 7" opacity="0.33"></path><path d="M 0 242 Q 355.5 190 711 400 Q 1066.5 610 1422 242" stroke-dasharray="4 1" opacity="0.11"></path><path d="M 0 220 Q 355.5 190 711 400 Q 1066.5 610 1422 220" stroke-dasharray="1 2" opacity="0.45"></path><path d="M 0 198 Q 355.5 190 711 400 Q 1066.5 610 1422 198" stroke-dasharray="3 8" opacity="0.74"></path><path d="M 0 176 Q 355.5 190 711 400 Q 1066.5 610 1422 176" stroke-dasharray="5 3" opacity="0.18"></path><path d="M 0 154 Q 355.5 190 711 400 Q 1066.5 610 1422 154" stroke-dasharray="0 6" opacity="0.72"></path><path d="M 0 132 Q 355.5 190 711 400 Q 1066.5 610 1422 132" stroke-dasharray="1 5" opacity="0.38"></path><path d="M 0 110 Q 355.5 190 711 400 Q 1066.5 610 1422 110" stroke-dasharray="8 4" opacity="0.83"></path><path d="M 0 88 Q 355.5 190 711 400 Q 1066.5 610 1422 88" stroke-dasharray="1 3" opacity="0.80"></path><path d="M 0 66 Q 355.5 190 711 400 Q 1066.5 610 1422 66" stroke-dasharray="8 6" opacity="0.66"></path><path d="M 0 44 Q 355.5 190 711 400 Q 1066.5 610 1422 44" stroke-dasharray="1 8" opacity="0.50"></path></g></svg>